<svg xmlns="http://www.w3.org/2000/svg" width="256" height="256" fill="none">
  <g clip-path="url(#a)">
    <path fill="url(#b)" fill-rule="evenodd" d="M232.128 204.204a9.464 9.464 0 0 1-4.608 1.181 9.646 9.646 0 0 1-5.418-1.672l-43.393-29.575v11.29c0 11.009-8.756 19.957-19.524 19.957H22.514c-10.768 0-19.524-8.948-19.524-19.957V55.696c0-11 8.756-19.957 19.524-19.957h136.671c10.768 0 19.524 8.957 19.524 19.957v11.3l43.393-29.576a9.578 9.578 0 0 1 10.026-.5c3.173 1.741 5.155 5.124 5.155 8.797v149.689c0 3.683-1.982 7.056-5.155 8.798Zm-14.37-139.83-43.393 29.565c-.254.17-.546.19-.81.34a8.99 8.99 0 0 1-1.855.77 9.25 9.25 0 0 1-1.855.38c-.312.031-.585.191-.898.191-.332 0-.615-.16-.947-.2a8.646 8.646 0 0 1-1.884-.39 9.173 9.173 0 0 1-1.728-.721 9.434 9.434 0 0 1-1.493-1.02 9.812 9.812 0 0 1-1.416-1.452c-.195-.25-.478-.39-.654-.66-.166-.261-.195-.571-.332-.842-.322-.59-.547-1.19-.742-1.851a9.852 9.852 0 0 1-.39-1.952c-.03-.31-.176-.58-.176-.89V55.695H22.514v130.112h136.671v-30.316c0-.311.146-.581.176-.891a9.579 9.579 0 0 1 .39-1.952 9.57 9.57 0 0 1 .742-1.861c.137-.271.166-.571.332-.831.176-.27.459-.42.664-.671.42-.53.869-.99 1.396-1.431.488-.4.976-.75 1.533-1.051a9.346 9.346 0 0 1 1.649-.7 8.894 8.894 0 0 1 1.982-.401c.312-.04.576-.19.898-.19.303 0 .557.15.849.18.664.06 1.289.19 1.933.391.645.2 1.24.44 1.816.77.264.14.566.16.82.341l43.393 29.565V64.373Z" clip-rule="evenodd"/>
  </g>
  <defs>
    <linearGradient id="b" x1="2.99" x2="219.044" y1="35.739" y2="226.086" gradientUnits="userSpaceOnUse">
      <stop stop-color="#4C54D2"/>
      <stop offset=".563" stop-color="#BF14A2"/>
      <stop offset="1" stop-color="#F73A1C"/>
    </linearGradient>
    <clipPath id="a">
      <path fill="#fff" d="M0 0h256v256H0z"/>
    </clipPath>
  </defs>
</svg>